<?xml version="1.0" encoding="utf-8"?>
<!-- Generator: Adobe Illustrator 19.0.0, SVG Export Plug-In . SVG Version: 6.00 Build 0)  -->
<svg version="1.1" id="Logo" xmlns="http://www.w3.org/2000/svg" xmlns:xlink="http://www.w3.org/1999/xlink" x="0px" y="0px"
	 width="9.9px" height="403.1px" viewBox="0 0 9.9 403.1" style="enable-background:new 0 0 9.9 403.1;" xml:space="preserve">
<g id="XMLID_3_">
	<path id="XMLID_4_" d="M8.3,8.3C8,9.9,7.5,11.2,6.8,11.9s-1.7,1.2-3,1.2c-1.3,0-2.2-0.4-2.6-1.2c-0.4-0.8-0.4-2-0.1-3.7l0.7-3.5
		C1.9,4,2.1,3.3,2.4,2.7c0.3-0.6,0.6-1.1,0.9-1.5s0.8-0.7,1.3-0.9C5.1,0.1,5.6,0,6.3,0c1.3,0,2.2,0.4,2.6,1.2c0.4,0.8,0.4,2,0.1,3.6
		L8.3,8.3z M5.8,2.5C5.2,2.5,4.8,3,4.5,4.1L3.6,9c-0.1,0.5-0.1,0.9,0,1.2c0.1,0.3,0.3,0.4,0.6,0.4c0.3,0,0.6-0.1,0.8-0.4
		C5.3,9.9,5.4,9.5,5.5,9l0.9-4.8C6.7,3,6.5,2.5,5.8,2.5z"/>
	<path id="XMLID_7_" d="M5.5,38.9H2.2l0.4-12.7h2.5L4.6,35l2.8-8.8h2.5L5.5,38.9z"/>
	<path id="XMLID_9_" d="M8.7,54.7H5.5L5,57.1h2.7l-0.5,2.5H4.6L4,62.3h3.3l-0.5,2.6H1l2.5-12.7h5.7L8.7,54.7z"/>
	<path id="XMLID_11_" d="M6.9,90.9H1.1l2.5-12.7h2.6l-2,10.1h3.2L6.9,90.9z"/>
	<path id="XMLID_13_" d="M5.1,116.9H2.5L5,104.2h2.6L5.1,116.9z"/>
	<path id="XMLID_15_" d="M7.6,142.9H5l0.1-2.2H3.3l-0.7,2.2H0l4.6-12.7h3.4L7.6,142.9z M4,138.2h1.3l0.3-5L4,138.2z"/>
	<path id="XMLID_18_" d="M9.1,184.7h-2l-2,10.1H2.5l2-10.1h-2l0.5-2.5h6.6L9.1,184.7z"/>
	<path id="XMLID_20_" d="M8.9,212.1c-0.1,0.7-0.4,1.4-0.7,1.9c-0.3,0.5-0.8,0.8-1.4,1c0.5,0.2,0.8,0.7,0.9,1.3c0.1,0.6,0.1,1.3,0,2
		l-0.2,0.9c-0.1,0.3-0.1,0.6-0.1,0.9s0,0.6,0.1,0.8H4.9c0-0.3,0-0.6,0-0.9s0.1-0.6,0.1-0.9l0.2-1c0.1-0.7,0.1-1.2,0-1.5
		c-0.1-0.3-0.4-0.5-0.7-0.5H3.9L3,220.9H0.4l2.5-12.7h3.7c1.1,0,1.8,0.3,2.2,0.8c0.4,0.5,0.5,1.4,0.2,2.5L8.9,212.1z M6.4,210.8
		c-0.1-0.2-0.3-0.3-0.7-0.3H5l-0.7,3.4H5c0.4,0,0.7-0.1,0.9-0.3c0.2-0.2,0.3-0.5,0.4-1l0.2-0.7C6.6,211.4,6.5,211,6.4,210.8z"/>
	<path id="XMLID_23_" d="M7.6,246.9H5l0.1-2.2H3.3l-0.7,2.2H0l4.6-12.7h3.4L7.6,246.9z M4,242.2h1.3l0.3-5L4,242.2z"/>
	<path id="XMLID_26_" d="M7.4,272.9H4.5L4,265.1l-1.5,7.8H0.2l2.5-12.7h2.9l0.6,7.3l1.4-7.3h2.3L7.4,272.9z"/>
	<path id="XMLID_28_" d="M8.7,290H6.3c0-0.2,0.1-0.4,0.1-0.6c0-0.2,0-0.4,0-0.5c0-0.2-0.1-0.3-0.2-0.4c-0.1-0.1-0.3-0.1-0.5-0.1
		c-0.2,0-0.5,0.1-0.6,0.2c-0.2,0.2-0.3,0.4-0.4,0.7l-0.1,0.3c-0.1,0.3,0,0.6,0.3,0.9s0.7,0.5,1.2,0.8c0.8,0.4,1.3,0.9,1.6,1.5
		s0.3,1.5,0.1,2.6c-0.1,0.7-0.3,1.3-0.6,1.7c-0.2,0.5-0.5,0.8-0.9,1.1c-0.4,0.3-0.8,0.5-1.2,0.6c-0.5,0.1-1,0.2-1.5,0.2
		c-1.1,0-1.9-0.3-2.3-0.9c-0.5-0.6-0.6-1.5-0.3-2.9l0.1-0.6h2.4c-0.1,0.2-0.1,0.5-0.2,0.7s-0.1,0.5,0,0.7s0.1,0.4,0.2,0.5
		c0.1,0.1,0.3,0.2,0.6,0.2c0.3,0,0.5-0.1,0.7-0.3s0.3-0.5,0.4-0.8l0.1-0.4c0.1-0.5,0-0.8-0.3-1.1s-0.8-0.6-1.3-0.9
		c-0.4-0.2-0.6-0.4-0.9-0.6c-0.2-0.2-0.4-0.5-0.5-0.8c-0.1-0.3-0.2-0.6-0.2-1c0-0.4,0.1-0.8,0.2-1.3c0.2-1.2,0.7-2.1,1.3-2.7
		c0.6-0.5,1.5-0.8,2.5-0.8c1.1,0,1.9,0.3,2.4,0.8c0.4,0.5,0.6,1.3,0.4,2.4L8.7,290z"/>
	<path id="XMLID_30_" d="M9.1,314.7h-2l-2,10.1H2.5l2-10.1h-2l0.5-2.5h6.6L9.1,314.7z"/>
	<path id="XMLID_32_" d="M8.3,346.3c-0.3,1.7-0.8,2.9-1.5,3.7c-0.7,0.8-1.7,1.2-3,1.2c-1.3,0-2.2-0.4-2.6-1.2
		c-0.4-0.8-0.4-2-0.1-3.7l0.7-3.5c0.2-0.8,0.4-1.5,0.6-2.1s0.6-1.1,0.9-1.5c0.4-0.4,0.8-0.7,1.3-0.9c0.5-0.2,1.1-0.3,1.7-0.3
		c1.3,0,2.2,0.4,2.6,1.2c0.4,0.8,0.4,2,0.1,3.6L8.3,346.3z M5.8,340.5c-0.6,0-1.1,0.5-1.3,1.6L3.6,347c-0.1,0.5-0.1,0.9,0,1.2
		c0.1,0.3,0.3,0.4,0.6,0.4c0.3,0,0.6-0.1,0.8-0.4c0.2-0.3,0.4-0.7,0.5-1.2l0.9-4.8C6.7,341,6.5,340.5,5.8,340.5z"/>
	<path id="XMLID_35_" d="M9.1,366.7h-2l-2,10.1H2.5l2-10.1h-2l0.5-2.5h6.6L9.1,366.7z"/>
	<path id="XMLID_37_" d="M8.3,398.3c-0.3,1.7-0.8,2.9-1.5,3.7c-0.7,0.8-1.7,1.2-3,1.2c-1.3,0-2.2-0.4-2.6-1.2
		c-0.4-0.8-0.4-2-0.1-3.7l0.7-3.5c0.2-0.8,0.4-1.5,0.6-2.1s0.6-1.1,0.9-1.5c0.4-0.4,0.8-0.7,1.3-0.9c0.5-0.2,1.1-0.3,1.7-0.3
		c1.3,0,2.2,0.4,2.6,1.2c0.4,0.8,0.4,2,0.1,3.6L8.3,398.3z M5.8,392.5c-0.6,0-1.1,0.5-1.3,1.6L3.6,399c-0.1,0.5-0.1,0.9,0,1.2
		c0.1,0.3,0.3,0.4,0.6,0.4c0.3,0,0.6-0.1,0.8-0.4c0.2-0.3,0.4-0.7,0.5-1.2l0.9-4.8C6.7,393,6.5,392.5,5.8,392.5z"/>
</g>
</svg>
