<?xml version="1.0" encoding="utf-8"?>
<!-- Generator: Adobe Illustrator 19.0.0, SVG Export Plug-In . SVG Version: 6.00 Build 0)  -->
<svg version="1.1" id="Layer_1" xmlns="http://www.w3.org/2000/svg" xmlns:xlink="http://www.w3.org/1999/xlink" x="0px" y="0px"
	 width="48.6px" height="12.1px" viewBox="0 0 48.6 12.1" style="enable-background:new 0 0 48.6 12.1;" xml:space="preserve">
<g id="XMLID_3_">
	<path id="XMLID_4_" d="M0,0.3h5.1c1,0,1.8,0.3,2.5,0.9c0.6,0.6,0.9,1.4,0.9,2.4c0,0.9-0.3,1.7-0.8,2.3c-0.6,0.7-1.4,1-2.6,1H1.6
		v4.9H0V0.3z M6,1.9C5.7,1.7,5.2,1.6,4.6,1.6H1.6v4h3.1c0.7,0,1.3-0.1,1.7-0.4S7,4.3,7,3.6C7,2.7,6.7,2.2,6,1.9z"/>
	<path id="XMLID_7_" d="M12.4,0.3h1.8l4.2,11.5h-1.7l-1.2-3.4h-4.5l-1.2,3.4H8.1L12.4,0.3z M15,7.1L13.2,2l-1.8,5.1H15z"/>
	<path id="XMLID_10_" d="M20.5,0.3v7.1c0,0.8,0.2,1.5,0.5,2.1c0.5,0.8,1.3,1.2,2.4,1.2c1.3,0,2.2-0.5,2.7-1.4c0.3-0.5,0.4-1.1,0.4-2
		V0.3H28v6.4c0,1.4-0.2,2.5-0.6,3.3c-0.7,1.4-2,2.1-4,2.1s-3.3-0.7-4-2.1c-0.4-0.8-0.6-1.8-0.6-3.3V0.3H20.5z"/>
	<path id="XMLID_12_" d="M30.9,8.1c0,0.7,0.2,1.2,0.4,1.6c0.5,0.8,1.4,1.1,2.6,1.1c0.6,0,1.1-0.1,1.5-0.2c0.9-0.3,1.3-0.9,1.3-1.7
		c0-0.6-0.2-1.1-0.6-1.3c-0.4-0.3-1-0.5-1.8-0.7L33,6.4c-1-0.2-1.7-0.5-2.1-0.8c-0.7-0.5-1.1-1.2-1.1-2.1c0-1,0.3-1.9,1-2.5
		c0.7-0.7,1.7-1,3-1c1.2,0,2.2,0.3,3,0.9C37.6,1.5,38,2.4,38,3.7h-1.5c-0.1-0.6-0.2-1.1-0.5-1.4c-0.5-0.6-1.2-0.9-2.3-0.9
		c-0.9,0-1.5,0.2-1.9,0.6c-0.4,0.4-0.6,0.8-0.6,1.3c0,0.6,0.2,1,0.7,1.2c0.3,0.2,1,0.4,2,0.6l1.6,0.4c0.8,0.2,1.3,0.4,1.7,0.7
		c0.7,0.5,1.1,1.3,1.1,2.3c0,1.3-0.5,2.2-1.4,2.7s-1.9,0.8-3.1,0.8c-1.4,0-2.5-0.4-3.3-1.1c-0.8-0.7-1.2-1.7-1.2-2.9H30.9z"/>
	<path id="XMLID_14_" d="M40.2,0.3h8.3v1.4h-6.8v3.5H48v1.3h-6.3v3.9h6.9v1.4h-8.4V0.3z"/>
</g>
</svg>
