<?xml version="1.0" encoding="utf-8"?>
<!-- Generator: Adobe Illustrator 19.0.0, SVG Export Plug-In . SVG Version: 6.00 Build 0)  -->
<svg version="1.1" id="Layer_1" xmlns="http://www.w3.org/2000/svg" xmlns:xlink="http://www.w3.org/1999/xlink" x="0px" y="0px"
	 width="37px" height="11.5px" viewBox="0 0 37 11.5" style="enable-background:new 0 0 37 11.5;" xml:space="preserve">
<g id="XMLID_1_">
	<path id="XMLID_2_" d="M0,0h5.1c1,0,1.8,0.3,2.5,0.9c0.6,0.6,0.9,1.4,0.9,2.4c0,0.9-0.3,1.7-0.8,2.3s-1.4,1-2.6,1H1.6v4.9H0V0z
		 M6,1.6C5.7,1.4,5.2,1.3,4.6,1.3H1.6v4h3.1c0.7,0,1.3-0.1,1.7-0.4C6.7,4.6,7,4,7,3.3C7,2.5,6.7,1.9,6,1.6z"/>
	<path id="XMLID_6_" d="M9.9,0h1.6v10.1h5.8v1.4H9.9V0z"/>
	<path id="XMLID_8_" d="M22.2,0H24l4.2,11.5h-1.7L25.2,8h-4.5l-1.2,3.4h-1.6L22.2,0z M24.8,6.8L23,1.7l-1.8,5.1H24.8z"/>
	<path id="XMLID_11_" d="M26.8,0h1.8l3.3,5.5L35.2,0H37l-4.3,6.9v4.6h-1.6V6.9L26.8,0z"/>
</g>
</svg>
